<svg width="9" height="7" viewBox="0 0 9 7" fill="none" xmlns="http://www.w3.org/2000/svg">
<path d="M5.75204 7.004C5.82671 6.66267 5.93871 6.30534 6.08804 5.932C6.24804 5.55867 6.45071 5.20667 6.69604 4.876C6.94137 4.54534 7.23471 4.284 7.57604 4.092V4.028L0.0400391 4.172V2.828L7.57604 2.972V2.908C7.21337 2.66267 6.90937 2.38 6.66404 2.06C6.41871 1.74 6.22137 1.404 6.07204 1.052C5.92271 0.689336 5.80004 0.337336 5.70404 -0.0039978H7.20804C7.28271 0.412002 7.39471 0.812002 7.54404 1.196C7.69337 1.56934 7.89071 1.916 8.13604 2.236C8.38137 2.556 8.66937 2.83334 9.00004 3.068V3.932C8.50937 4.284 8.11471 4.716 7.81604 5.228C7.52804 5.72934 7.32537 6.32134 7.20804 7.004H5.75204Z" fill="#0E0D0A"/>
</svg>
