<svg width="454" height="454" viewBox="0 0 454 454" fill="none" xmlns="http://www.w3.org/2000/svg">
<g filter="url(#filter0_d_1201_514)">
<path d="M26.1646 122.728C1.67807 173.838 39.8658 216.596 62.0205 231.586C61.3209 253.855 87.6639 275.462 100.923 283.482C83.441 323.102 125.451 362.305 148.641 376.954C107.344 424.418 185.318 416.287 229.468 406.288C354.01 391.666 364.063 346.363 353.521 325.539C385.743 300.004 376.354 262.73 367.632 247.285C422.447 189.285 392.358 144.922 370.462 129.99C359.251 5.35293 285.666 36.9177 250.275 68.2798C187.999 33.2366 152.179 80.3125 142.053 108.231C128.077 102.389 114.226 113.044 109.048 119.102C91.6227 99.0153 50.6511 71.6185 26.1646 122.728Z" fill="white"/>
<path d="M26.1646 122.728C1.67807 173.838 39.8658 216.596 62.0205 231.586C61.3209 253.855 87.6639 275.462 100.923 283.482C83.441 323.102 125.451 362.305 148.641 376.954C107.344 424.418 185.318 416.287 229.468 406.288C354.01 391.666 364.063 346.363 353.521 325.539C385.743 300.004 376.354 262.73 367.632 247.285C422.447 189.285 392.358 144.922 370.462 129.99C359.251 5.35293 285.666 36.9177 250.275 68.2798C187.999 33.2366 152.179 80.3125 142.053 108.231C128.077 102.389 114.226 113.044 109.048 119.102C91.6227 99.0153 50.6511 71.6185 26.1646 122.728Z" stroke="white" stroke-width="0.342986"/>
</g>
<path d="M211.146 80.9525C182.939 84.5064 161.618 107.511 157.314 135.96C151.915 135.11 146.335 134.996 140.68 135.709C106.173 140.056 81.9713 173.514 86.6237 210.439C89.9891 237.15 107.532 258.358 130.042 266.401C128.143 274.432 127.622 283 128.726 291.764C133.379 328.688 165.124 355.097 199.631 350.75C217.079 348.551 231.892 338.91 241.673 325.141C254.564 336.054 271.306 341.719 288.754 339.521C323.261 335.173 347.463 301.715 342.811 264.79C341.716 256.102 339.121 247.996 335.344 240.737C355.38 227.423 367.282 202.382 363.896 175.504C359.244 138.579 327.499 112.17 292.992 116.518C287.337 117.23 281.96 118.724 276.94 120.887C265.713 94.3951 239.352 77.3986 211.146 80.9525Z" fill="#F5A3E0"/>
<path d="M235.023 274.566C218.1 280.14 209.847 308.126 214.753 323.021C219.659 337.915 230 348.128 233.99 351.859C230.151 355.42 221.099 363.14 220.421 373.269C221.456 387.715 263.211 374.389 280.15 368.724C300.237 362.71 333.349 344.399 329.895 333.477C329.645 332.718 327.001 324.437 325.344 315.901C324.665 312.402 324.004 309.021 323.493 306.411" stroke="black" stroke-width="4.11583"/>
<path d="M226.498 379.208C189.87 391.273 168.544 389.948 167.182 386.599C165.581 381.74 173.335 373.352 177.412 369.765C168.759 361.684 161.942 353.657 157.504 340.183" stroke="black" stroke-width="4.11583"/>
<path d="M186.088 190.156C195.809 192.78 205.914 186.669 208.657 176.506C205.905 186.699 195.809 192.78 186.088 190.156ZM186.088 190.156C176.367 187.532 170.711 177.166 173.454 167.003C170.702 177.197 176.367 187.532 186.088 190.156Z" stroke="black" stroke-width="4.11583"/>
<ellipse cx="218.737" cy="167.082" rx="3.77285" ry="3.60135" transform="rotate(-18.2311 218.737 167.082)" fill="black"/>
<ellipse cx="170.63" cy="153.136" rx="3.60135" ry="3.77285" transform="rotate(-18.2311 170.63 153.136)" fill="black"/>
<path d="M283.032 127.664L285.946 94.8509C281.038 91.4799 270.336 83.4598 272.344 79.4962C272.658 78.8769 275.149 76.2212 284.7 78.4928L290.402 89.5135C286.631 83.3052 279.941 70.3315 283.349 68.1028C285.532 66.868 289.735 65.6382 303.339 82.4144C303.2 82.2023 298.657 67.9297 299.532 65.3523C299.926 64.1906 303.298 57.9206 319.113 83.9262C319.347 83.8492 327.09 73.5592 332.445 75.6653C332.912 75.5114 345.069 93.5566 335.806 146.397" stroke="black" stroke-width="4.11583"/>
<path d="M114.209 170.961L81.0435 143.929C81.3689 139.185 81.3406 129.354 78.6231 127.983C75.609 127.43 73.1994 131.057 70.4571 141.491C71.0395 137.006 71.4479 127.616 68.4222 125.933C65.9491 125.46 61.0838 128.041 61.4069 142.154C61.1747 142.23 61.0743 126.293 56.2022 126.352C53.3675 126.084 47.9987 132.712 49.2002 161.372C49.6647 161.219 41.0104 159.176 40.6066 164.203C40.3728 167.113 52.0145 181.144 99.5667 224.211" stroke="black" stroke-width="4.11583"/>
<defs>
<filter id="filter0_d_1201_514" x="3.68053" y="25.4931" width="409.562" height="403.036" filterUnits="userSpaceOnUse" color-interpolation-filters="sRGB">
<feFlood flood-opacity="0" result="BackgroundImageFix"/>
<feColorMatrix in="SourceAlpha" type="matrix" values="0 0 0 0 0 0 0 0 0 0 0 0 0 0 0 0 0 0 127 0" result="hardAlpha"/>
<feOffset/>
<feGaussianBlur stdDeviation="7.2027"/>
<feComposite in2="hardAlpha" operator="out"/>
<feColorMatrix type="matrix" values="0 0 0 0 0 0 0 0 0 0 0 0 0 0 0 0 0 0 0.25 0"/>
<feBlend mode="normal" in2="BackgroundImageFix" result="effect1_dropShadow_1201_514"/>
<feBlend mode="normal" in="SourceGraphic" in2="effect1_dropShadow_1201_514" result="shape"/>
</filter>
</defs>
</svg>
